<?xml version="1.0" encoding="utf-8"?>
<!-- Generator: Adobe Illustrator 24.0.2, SVG Export Plug-In . SVG Version: 6.00 Build 0)  -->
<svg version="1.1" id="Layer_1" xmlns="http://www.w3.org/2000/svg" xmlns:xlink="http://www.w3.org/1999/xlink" x="0px" y="0px"
	 viewBox="0 0 848 869" style="enable-background:new 0 0 848 869;" xml:space="preserve">
<style type="text/css">
	.st0{fill:#FFFFFF;stroke:#5AD7FA;stroke-width:30;stroke-miterlimit:10;}
	.st1{fill:#5AD7FA;}
	.st2{font-family:'MyriadPro-Regular';}
	.st3{font-size:500px;}
	.st4{fill:none;stroke:#5AD7FA;stroke-width:7;stroke-miterlimit:10;}
	.st5{fill:none;stroke:#5AD7FA;stroke-miterlimit:10;}
	.st6{fill:#FFFFFF;}
</style>
<circle class="st0" cx="422" cy="423" r="377"/>
<text transform="matrix(0.9743 0.2254 -0.2254 0.9743 270.7396 423.0535)" class="st1 st2 st3">H</text>
<path class="st1" d="M531,299c-81-71.33-162-142.67-243-214"/>
<g>
	<g>
		<path class="st1" d="M-415.45,492.69c1.93,0,1.93-3,0-3C-417.38,489.69-417.39,492.69-415.45,492.69L-415.45,492.69z"/>
	</g>
</g>
<path class="st4" d="M347.5,563.5"/>
<g>
	<g>
		<path class="st1" d="M195.14,720.01c9.74-11.5,21.92-20.77,35.57-27.17c6.84-3.2,14.04-5.64,21.41-7.27
			c7.88-1.74,16.15-2.58,23.07-7.11c3.42-2.24,6.4-5.08,9.25-7.99c3.16-3.23,6.28-6.5,9.42-9.75c6.5-6.73,13-13.47,19.5-20.2
			c6.44-6.67,12.85-13.39,19.33-20.02c2.08-2.12,6.04-5.95,9.25-3.82c1.53,1.02,2.29,2.99,3.06,4.58c1.02,2.1,2.04,4.19,3.06,6.29
			c8.2,16.85,16.41,33.7,24.61,50.55c1.02,2.1,2.04,4.19,3.06,6.29c0.84,1.74,3.43,0.22,2.59-1.51c-8.42-17.3-16.84-34.6-25.27-51.9
			c-2.04-4.19-4.02-8.42-6.13-12.58c-1.7-3.36-4.46-5.93-8.48-5.14c-3.96,0.78-6.94,4.15-9.61,6.92c-3.28,3.4-6.56,6.79-9.84,10.19
			c-6.67,6.91-13.35,13.82-20.02,20.74c-6.4,6.63-12.62,13.49-19.28,19.85c-3.04,2.9-6.34,5.5-10.21,7.2
			c-3.81,1.67-7.95,2.51-12.01,3.3c-7.8,1.52-15.4,3.42-22.79,6.41c-14.23,5.77-27.24,14.53-37.8,25.7
			c-1.33,1.41-2.62,2.85-3.87,4.33C191.78,719.35,193.89,721.49,195.14,720.01L195.14,720.01z"/>
	</g>
</g>
<g>
	<g>
		<path class="st1" d="M343.79,678.62c-1.53-8.03,0.98-16.18,5.17-23.01c4.44-7.24,10.87-12.98,17.5-18.17
			c6.69-5.24,13.64-10.12,20.13-15.61c6.35-5.36,12.37-11.12,17.89-17.34c5.48-6.18,10.49-12.81,14.76-19.88
			c1.04-1.72,2.01-3.47,2.98-5.23c0.78-1.42,1.69-3.19,3.28-3.85c3.76-1.55,7.33,3.68,9.24,6.11
			c10.42,13.27,18.54,28.39,23.93,44.36c2.59,7.69,4.26,15.55,6.04,23.45c1.6,7.13,3.63,14.51,8.12,20.42
			c1.09,1.43,2.29,2.75,3.63,3.95c1.43,1.29,3.56-0.83,2.12-2.12c-5.77-5.17-8.4-12.53-10.23-19.86c-1.99-8.01-3.42-16.1-5.92-23.98
			c-5.24-16.53-13.29-32.18-23.76-46c-2.45-3.23-4.99-7.11-8.81-8.85c-1.75-0.8-3.69-0.99-5.49-0.24c-1.77,0.74-3.02,2.21-4.01,3.81
			c-2.2,3.56-4.1,7.28-6.41,10.78c-2.37,3.58-4.92,7.03-7.63,10.36c-5.38,6.6-11.36,12.71-17.7,18.38
			c-6.53,5.84-13.52,11.04-20.5,16.31c-13.27,10.02-27.54,22.95-27.78,40.96c-0.03,2.03,0.18,4.05,0.56,6.05
			C341.26,681.31,344.15,680.51,343.79,678.62L343.79,678.62z"/>
	</g>
</g>
<g>
	<g>
		<path class="st1" d="M465.51,606.19c1.53-7.81,6.74-13.88,12.23-19.34c5.89-5.87,12.16-11.35,16.7-18.4
			c5.03-7.81,8.08-16.74,10.33-25.71c1.13-4.51,1.94-9.08,3-13.61c0.95-4.05,2.77-7.94,7.27-8.72c3.99-0.69,8.28,0.91,11.84,2.56
			c3.64,1.68,7.73,3.96,8.73,8.17c0.57,2.38,0.2,4.91,0.08,7.32c-0.11,2.34-0.13,4.68-0.05,7.02c0.15,4.74,0.69,9.47,1.58,14.13
			c1.75,9.18,4.93,18.1,9.38,26.32c4.75,8.78,11.21,16.21,17.61,23.79c3.26,3.87,6.39,7.84,9.12,12.11
			c2.73,4.27,5.14,8.74,7.45,13.25c4.92,9.63,9.68,19.35,14.51,29.03c1.22,2.44,2.43,4.87,3.65,7.31c0.86,1.73,3.45,0.21,2.59-1.51
			c-5.05-10.12-10.1-20.23-15.15-30.35c-4.66-9.34-9.42-18.58-15.87-26.83c-6.33-8.11-13.59-15.44-18.99-24.25
			c-5.05-8.25-8.68-17.31-10.8-26.74c-1.06-4.72-1.73-9.51-2-14.34c-0.13-2.41-0.16-4.82-0.09-7.23c0.07-2.48,0.41-4.98,0.22-7.46
			c-0.35-4.63-2.98-8-6.82-10.4c-3.6-2.25-7.89-4.06-12.09-4.74c-4.1-0.66-8.5-0.12-11.46,3.07c-3.06,3.3-3.67,8-4.55,12.23
			c-1.95,9.39-4.24,18.86-8.43,27.53c-2.02,4.19-4.48,8.18-7.48,11.74c-2.66,3.16-5.63,6.03-8.6,8.89
			c-5.72,5.52-11.82,11.24-15.02,18.68c-0.79,1.83-1.39,3.72-1.77,5.68C462.25,607.28,465.14,608.09,465.51,606.19L465.51,606.19z"
			/>
	</g>
</g>
<g>
	<g>
		<path class="st1" d="M556.98,601.65c6.89-9.64,15.64-21.3,28.89-20.77c6.73,0.27,11.36,4.96,15.93,9.35
			c4.89,4.7,9.77,9.41,14.48,14.29c4.82,5,9.47,10.18,13.72,15.69c3.49,4.52,6.67,9.28,9.72,14.1c6.05,9.57,11.58,19.48,18.01,28.81
			c7.05,10.24,15.28,19.75,25.82,26.53c1.63,1.05,3.13-1.55,1.51-2.59c-19.66-12.64-30.29-34.43-42.35-53.61
			c-6.88-10.95-14.72-21.03-23.67-30.38c-4.9-5.12-10.01-10.05-15.12-14.96c-4.54-4.36-9.18-8.98-15.68-9.98
			c-6.86-1.06-13.86,1.42-19.31,5.54c-5.91,4.46-10.27,10.51-14.54,16.48C553.27,601.71,555.87,603.21,556.98,601.65L556.98,601.65z
			"/>
	</g>
</g>
<g>
	<g>
		<path class="st1" d="M340.93,681.39c7.75,9.67,15.5,19.34,23.25,29.01c1.21,1.51,3.32-0.63,2.12-2.12
			c-7.75-9.67-15.5-19.34-23.25-29.01C341.84,677.77,339.73,679.9,340.93,681.39L340.93,681.39z"/>
	</g>
</g>
<g>
	<g>
		<path class="st1" d="M374.52,683.67c0.17,3.84-0.37,7.62-1.64,11.25c-1.29,3.68-3.37,6.74-5.76,9.78
			c-1.09,1.38-2.03,2.9-2.06,4.72c-0.03,1.83,0.92,3.44,2.08,4.79c1.3,1.51,2.91,2.77,4.39,4.09c1.71,1.52,3.42,3.05,5.12,4.57
			c3.78,3.37,7.56,6.75,11.34,10.12c1.44,1.28,3.57-0.83,2.12-2.12c-6.39-5.7-12.82-11.37-19.17-17.11
			c-1.15-1.05-2.66-2.34-2.86-3.99c-0.21-1.76,1.43-3.26,2.43-4.52c2.24-2.82,3.98-5.96,5.19-9.35c1.4-3.91,2-8.1,1.81-12.24
			C377.43,681.74,374.43,681.73,374.52,683.67L374.52,683.67z"/>
	</g>
</g>
<g>
	<g>
		<path class="st1" d="M462.79,601.62c-3.01,4.68-5.04,9.97-5.93,15.46c-0.13,0.8,0.21,1.61,1.05,1.85c0.72,0.2,1.71-0.24,1.85-1.05
			c0.85-5.27,2.75-10.26,5.63-14.75C466.43,601.51,463.83,600,462.79,601.62L462.79,601.62z"/>
	</g>
</g>
<g>
	<g>
		<path class="st1" d="M366.33,705.74c-4.66-9.92-9.09-20.44-8.53-31.62c-0.93,0.25-1.86,0.5-2.8,0.76
			c2.68,5.44,3.07,11.73,1.23,17.49c0.96,0.27,1.93,0.53,2.89,0.8c0.98-6.49,1-12.99,0.04-19.48c-0.96,0.27-1.93,0.53-2.89,0.8
			c1.27,3.09,2.05,6.34,2.76,9.59c0.77,3.48,1.53,6.95,2.29,10.43c0.96-0.27,1.93-0.53,2.89-0.8c-1.21-2.93-1.39-6-0.46-9.03
			c-0.84,0.22-1.67,0.44-2.51,0.66c3.81,4.1,5.73,9.87,4.97,15.44c0.98,0.13,1.96,0.27,2.95,0.4c-0.09-2.91,0.42-5.71,1.51-8.41
			c-0.91,0.12-1.83,0.24-2.74,0.36c0.88,1.57,0.85,3.36-0.07,4.91c0.91,0.12,1.83,0.24,2.74,0.36c-0.13-0.94,0.16-1.97,0.74-2.71
			c-0.84-0.49-1.67-0.97-2.51-1.46c-0.33,1.71-1.05,3.18-2.28,4.42c0.85,0.35,1.71,0.71,2.56,1.06c0.24-3.84,0.48-7.67,0.72-11.51
			c-1,0-2,0-3,0c-0.26,4.89,2.31,11.52-1.34,15.68c0.71,0,1.41,0,2.12,0c-2.53-2.83-4.58-6-6.18-9.44
			c-0.71-1.53-3.31-0.45-2.74,1.16c1.27,3.56,2.22,7.2,2.83,10.93c0.91-0.39,1.83-0.77,2.74-1.16c-1.45-2.76-2.47-5.68-3.11-8.73
			c-0.91,0.39-1.83,0.77-2.74,1.16c0.83,1.42,1.67,2.85,2.5,4.27c0.83,1.42,3.35,0.48,2.74-1.16c-1.22-3.26-1.9-6.63-2-10.11
			c-0.93,0.25-1.86,0.5-2.8,0.76c1.51,2.79,2.79,5.67,3.83,8.66c0.91-0.39,1.83-0.77,2.74-1.16c-0.64-1.17-1.08-2.43-1.24-3.76
			c-0.5,0.5-1,1-1.5,1.5c-0.58-0.07-0.22-0.12-0.07,0.27c0.11,0.28,0.3,0.57,0.46,0.82c0.41,0.66,0.95,1.28,1.73,1.5
			c0.93,0.25,1.64-0.16,2.39-0.63c0.88-0.55,1.94-0.61,2.89-0.97c2.09-0.77,2.85-2.43,3.37-4.46c0.53-2.08,1.95-3.61,2.81-5.54
			c0.96-2.14,0.72-4.23-0.17-6.35c-0.97-2.32-2.1-4.59-3.25-6.82c-2.33-4.53-4.98-8.82-7.72-13.11c-0.76-1.19-1.47-2.4-1.97-3.72
			c-0.52-1.37-0.9-2.79-1.44-4.15c-1.03-2.61-2.52-4.96-4.06-7.29c-0.75-1.15-2.27-0.84-2.74,0.36c-2.59,6.6-5.01,13.37-4.02,20.57
			c0.96,6.99,4.29,13.64,7.28,19.95c0.79,1.67,2.96,0.37,2.74-1.16c-0.63-4.38-1.27-8.77-1.9-13.15c-0.31-2.11-0.61-4.22-0.92-6.33
			c-0.21-1.5-0.65-3.59,0.39-4.88c-0.79-0.1-1.57-0.2-2.36-0.3c3.32,6.83,2.17,14.78,1.08,22c0.98,0.13,1.96,0.27,2.95,0.4
			c-0.51-6.19-1.02-12.38-1.52-18.58c-0.85,0.35-1.71,0.71-2.56,1.06c5.25,6.45,5.86,15.29,6.39,23.24c0.93-0.25,1.86-0.5,2.8-0.76
			c-1.39-2.96-1.93-6.17-1.71-9.42c-0.85,0.35-1.71,0.71-2.56,1.06c3.81,3.41,5.99,8.23,5.98,13.34c0.75-0.43,1.5-0.86,2.26-1.3
			c-0.75-0.42-1.32-0.93-1.85-1.61c-0.93-1.2-2.95,0.11-2.51,1.46c0.65,1.99,0.63,4.07-0.26,6c0.68-0.18,1.37-0.36,2.05-0.54
			c-1.27-0.88-2-2.16-2.3-3.66c-0.91,0.39-1.83,0.77-2.74,1.16c1.51,2.2,2.48,4.6,2.94,7.23c0.21,1.19,1.74,1.34,2.51,0.66
			c1.85-1.63,3.68-3.28,5.5-4.95c0.76-0.69,0.46-1.84-0.3-2.36c-2.58-1.75-4.89-3.83-6.94-6.17c-1.27-1.46-3.38,0.67-2.12,2.12
			c0.7,0.81,0.8,1.82,0.49,2.82c0.73-0.3,1.47-0.6,2.2-0.9c-2.02-1.28,1.96-4.68,2.83-5.46c0.48-0.43,0.97-0.84,1.49-1.22
			c0.18-0.14,1.75-1.08,1.74-1.17c-0.31-0.22-0.61-0.44-0.92-0.66c-0.01,0.14-0.04,0.27-0.09,0.4c-0.16,0.27-0.23,0.68-0.36,0.96
			c-0.28,0.61-0.66,1.18-1.06,1.72c0.86,0,1.73,0,2.59,0c-0.18-0.34-0.36-0.69-0.55-1.03c-0.49-0.93-1.65-0.88-2.36-0.3
			c-0.8,0.65-1.59,1.3-2.39,1.96c0.71,0.71,1.41,1.41,2.12,2.12c2.36-1.95,4.25-4.41,5.51-7.2c-0.56,0.23-1.13,0.46-1.69,0.69
			c-0.48-0.2-0.17-0.46-0.34,0.01c-0.05,0.14-0.07,0.38-0.1,0.53c-0.16,0.65-0.4,1.3-0.68,1.9c-0.54,1.17-1.24,2.24-2.09,3.2
			c0.61-0.08,1.21-0.16,1.82-0.23c-0.82-0.62-0.76-1.53-0.51-2.4c0.33-1.11,0.65-2.22,0.87-3.36c0.45-2.34,0.62-4.71,0.51-7.09
			c-0.06-1.3-1.6-1.98-2.56-1.06c-1.16,1.1-1.52,2.77-1.05,4.29c0.5,1.63,1.82,2.74,3.14,3.71c1.25,0.91,2.79-0.84,2.05-2.05
			c-0.85-1.4-1.93-2.52-3.28-3.44c-1.14-0.78-2.48,0.5-2.2,1.69c0.23,0.97-0.15,1.74-0.89,2.36c0.79,0.1,1.57,0.2,2.36,0.3
			c-1.13-2.47-1.49-5.14-1.23-7.83c-0.93,0.25-1.86,0.5-2.8,0.76c1.88,2.66,2.43,5.88,1.47,9c0.84-0.22,1.67-0.44,2.51-0.66
			c-1.87-2.2-2.76-4.97-2.67-7.83c-0.85,0.35-1.71,0.71-2.56,1.06c1.42,1.51,2.26,3.28,2.64,5.31c0.91-0.39,1.83-0.77,2.74-1.16
			c-2.28-3.07-3.57-6.65-3.67-10.49c-0.85,0.35-1.71,0.71-2.56,1.06c1.3,1.53,2.19,3.29,2.71,5.23c0.91-0.39,1.83-0.77,2.74-1.16
			c-2.64-3.44-4.44-7.33-5.32-11.58c-0.84,0.49-1.67,0.97-2.51,1.46c1.24,1.55,2.01,3.34,2.43,5.27c0.84-0.49,1.67-0.97,2.51-1.46
			c-0.79-0.8-1.29-1.68-1.59-2.76c-0.91,0.39-1.83,0.77-2.74,1.16c1.2,2.58,2.4,5.16,3.6,7.74c0.86-0.5,1.73-1.01,2.59-1.51
			c-1.21-1.62-2.25-3.37-3.03-5.24c-0.73,0.56-1.47,1.13-2.2,1.69c2.83,1.55,4.14,4.67,5.28,7.53c0.73-0.56,1.47-1.13,2.2-1.69
			c-1.99-0.96-3.42-2.57-4.03-4.7c-0.54-1.88-3.23-1.08-2.89,0.8c0.33,1.82-0.14,3.74-1.3,5.19c0.84,0.22,1.67,0.44,2.51,0.66
			c-1.64-4-2.61-8.19-2.82-12.5c-0.85,0.35-1.71,0.71-2.56,1.06c0.38,0.35,0.46,0.58,0.44,1.09c0.98-0.13,1.96-0.27,2.95-0.4
			c-0.81-3.54-1.61-7.08-2.42-10.62c-0.73,0.56-1.47,1.13-2.2,1.69c0.34,0.2-2.33,3.32-2.6,3.73c-1.05,1.56-1.84,3.28-2.42,5.07
			c0.98,0.13,1.96,0.27,2.95,0.4c-0.14-4.57,0.7-9.02,2.46-13.24c-0.91,0.12-1.83,0.24-2.74,0.36c1.64,2.53,2.59,5.36,2.72,8.38
			c1,0,2,0,3,0c-0.53-4.04-1.3-8.03-2.33-11.98c-0.44-1.66-2.9-1.28-2.95,0.4c-0.25,9.08-1.5,18.11-3.76,26.91
			c-0.57,2.21-1.2,4.41-1.89,6.58c-0.59,1.85-1.53,3.81-0.86,5.76c0.54,1.59,1.95,2.67,3.36,3.46c1.17,0.66,3.6,1.44,3.74,3.05
			c0.75-0.43,1.5-0.86,2.26-1.3c-3.26-1.62-5.55-4.44-7.04-7.72c-0.73-1.61-1.14-3.28-1.56-4.98c-0.21-0.84-0.5-1.69-1.12-2.33
			c-0.62-0.64-1.61-0.81-2.2-1.44c-1.08-1.14-0.31-3.6-0.05-4.92c0.4-2.05,0.91-4.09,1.53-6.09c1.28-4.17,3.02-8.17,5.17-11.97
			c0.95-1.68-1.64-3.2-2.59-1.51c-2.34,4.15-4.24,8.55-5.6,13.12c-0.64,2.15-1.16,4.33-1.56,6.54c-0.34,1.9-0.72,4.03,0.2,5.84
			c0.45,0.89,1.14,1.49,2,1.98c0.46,0.26,0.87,0.38,1.14,0.86c0.22,0.4,0.25,1,0.36,1.45c0.43,1.83,1.05,3.61,1.86,5.31
			c1.7,3.56,4.39,6.69,7.95,8.46c0.92,0.46,2.37-0.08,2.26-1.3c-0.17-1.9-1.21-3.21-2.75-4.26c-1.3-0.9-3.11-1.35-4.14-2.6
			c-0.64-0.77-0.45-1.51-0.18-2.41c0.32-1.04,0.68-2.07,1-3.11c0.67-2.18,1.29-4.38,1.84-6.6c2.18-8.76,3.38-17.77,3.64-26.79
			c-0.98,0.13-1.96,0.27-2.95,0.4c0.97,3.68,1.73,7.41,2.23,11.18c0.24,1.85,3.09,1.98,3,0c-0.16-3.53-1.21-6.92-3.13-9.89
			c-0.76-1.17-2.25-0.82-2.74,0.36c-1.85,4.44-2.71,9.23-2.56,14.03c0.05,1.71,2.42,2.01,2.95,0.4c0.84-2.57,2.25-4.56,3.94-6.62
			c1.38-1.69,1.87-4.26-0.3-5.56c-1.17-0.7-2.49,0.45-2.2,1.69c0.81,3.54,1.61,7.08,2.42,10.62c0.39,1.71,2.86,1.23,2.95-0.4
			c0.07-1.24-0.4-2.37-1.32-3.21c-0.9-0.83-2.63-0.3-2.56,1.06c0.22,4.58,1.18,9.06,2.92,13.3c0.37,0.91,1.72,1.65,2.51,0.66
			c1.88-2.35,2.6-5.13,2.07-8.11c-0.96,0.27-1.93,0.53-2.89,0.8c0.81,2.83,2.75,5.21,5.41,6.49c1.04,0.5,2.74-0.36,2.2-1.69
			c-1.44-3.6-3.09-7.38-6.66-9.33c-1.03-0.56-2.74,0.41-2.2,1.69c0.89,2.12,1.96,4.1,3.34,5.95c1.15,1.54,3.41,0.26,2.59-1.51
			c-1.2-2.58-2.4-5.16-3.6-7.74c-0.73-1.57-3.18-0.45-2.74,1.16c0.43,1.57,1.22,2.93,2.36,4.09c1.09,1.11,2.82-0.04,2.51-1.46
			c-0.54-2.46-1.64-4.63-3.21-6.59c-1.01-1.27-2.78,0.14-2.51,1.46c0.92,4.47,2.84,8.68,5.62,12.29c0.97,1.26,3.22,0.62,2.74-1.16
			c-0.66-2.45-1.84-4.63-3.48-6.56c-0.85-1-2.59-0.18-2.56,1.06c0.11,4.33,1.49,8.52,4.08,12c1.01,1.36,3.06,0.57,2.74-1.16
			c-0.46-2.52-1.66-4.77-3.41-6.63c-0.92-0.98-2.52-0.19-2.56,1.06c-0.12,3.69,1.17,7.16,3.54,9.96c0.76,0.9,2.2,0.34,2.51-0.66
			c1.18-3.82,0.54-8.04-1.77-11.31c-0.88-1.25-2.65-0.75-2.8,0.76c-0.31,3.24,0.29,6.39,1.64,9.34c0.44,0.95,1.69,0.86,2.36,0.3
			c1.56-1.3,2.12-3.33,1.66-5.28c-0.73,0.56-1.47,1.13-2.2,1.69c0.92,0.63,1.63,1.41,2.2,2.36c0.68-0.68,1.37-1.37,2.05-2.05
			c-0.88-0.64-2.68-2.15-1.48-3.28c-0.85-0.35-1.71-0.71-2.56-1.06c0.14,3.05-0.18,6.06-1.06,8.99c-0.37,1.22-0.7,2.33-0.36,3.61
			c0.32,1.21,1.06,2.1,2.04,2.84c0.5,0.37,1.42,0.22,1.82-0.23c1.91-2.18,6.32-8.83,1.89-10.65c-0.55-0.23-1.45,0.14-1.69,0.69
			c-1.17,2.59-2.85,4.78-5.04,6.59c-1.49,1.23,0.64,3.33,2.12,2.12c0.8-0.65,1.59-1.3,2.39-1.96c-0.79-0.1-1.57-0.2-2.36-0.3
			c0.18,0.34,0.36,0.69,0.55,1.03c0.58,1.09,1.96,0.84,2.59,0c1.14-1.52,2.83-4.43,1.36-6.22c-1.71-2.09-4.65,0.7-6.07,1.87
			c-1.73,1.42-3.67,3.16-4.56,5.27c-0.85,2.02-0.37,4.37,1.54,5.58c0.85,0.54,1.92-0.01,2.2-0.9c0.66-2.05,0.13-4.13-1.26-5.73
			c-0.71,0.71-1.41,1.41-2.12,2.12c2.22,2.54,4.75,4.75,7.55,6.64c-0.1-0.79-0.2-1.57-0.3-2.36c-1.82,1.67-3.65,3.32-5.5,4.95
			c0.84,0.22,1.67,0.44,2.51,0.66c-0.51-2.85-1.61-5.55-3.25-7.94c-0.97-1.42-3.07-0.54-2.74,1.16c0.44,2.28,1.78,4.15,3.67,5.45
			c0.62,0.43,1.73,0.16,2.05-0.54c1.22-2.65,1.47-5.52,0.56-8.31c-0.84,0.49-1.67,0.97-2.51,1.46c0.67,0.87,1.49,1.55,2.45,2.08
			c0.99,0.55,2.25-0.14,2.26-1.3c0.01-5.86-2.48-11.55-6.86-15.46c-1-0.89-2.47-0.25-2.56,1.06c-0.25,3.8,0.51,7.5,2.12,10.93
			c0.63,1.34,2.89,0.69,2.8-0.76c-0.59-8.86-1.45-18.21-7.27-25.36c-0.8-0.99-2.66-0.19-2.56,1.06c0.51,6.19,1.02,12.38,1.52,18.58
			c0.13,1.55,2.67,2.19,2.95,0.4c1.23-8.11,2.34-16.66-1.38-24.31c-0.39-0.81-1.77-1.03-2.36-0.3c-2.7,3.36-1.09,8.34-0.53,12.19
			c0.73,5.03,1.46,10.07,2.19,15.1c0.91-0.39,1.83-0.77,2.74-1.16c-2.82-5.94-5.97-12.21-6.92-18.78
			c-0.98-6.76,1.53-13.25,3.95-19.43c-0.91,0.12-1.83,0.24-2.74,0.36c1.21,1.85,2.44,3.71,3.38,5.72c0.97,2.08,1.45,4.34,2.4,6.43
			c0.94,2.07,2.3,3.92,3.51,5.83c1.25,1.96,2.44,3.96,3.58,5.99c1.14,2.03,2.22,4.08,3.25,6.17c0.96,1.94,2.29,4.08,2.67,6.23
			c0.35,1.95-1.04,3.53-1.98,5.09c-0.48,0.8-0.89,1.64-1.15,2.53c-0.24,0.81-0.29,1.93-0.85,2.6c-0.58,0.7-1.73,0.74-2.54,0.99
			c-0.52,0.16-1.05,0.35-1.52,0.64c-0.62,0.38-0.14,0.21-0.04,0.5c-0.48-1.39-1.65-2.6-3.11-2.78c-0.74-0.09-1.59,0.76-1.5,1.5
			c0.23,1.88,0.74,3.61,1.65,5.28c0.8,1.47,3.31,0.47,2.74-1.16c-1.12-3.23-2.5-6.37-4.13-9.38c-0.71-1.3-2.84-0.72-2.8,0.76
			c0.1,3.74,0.8,7.41,2.11,10.91c0.91-0.39,1.83-0.77,2.74-1.16c-0.83-1.42-1.67-2.85-2.5-4.27c-0.88-1.51-3.09-0.48-2.74,1.16
			c0.69,3.3,1.85,6.46,3.41,9.45c0.84,1.61,3,0.41,2.74-1.16c-0.62-3.73-1.56-7.37-2.83-10.93c-0.91,0.39-1.83,0.77-2.74,1.16
			c1.7,3.67,3.94,7.03,6.64,10.05c0.52,0.58,1.61,0.59,2.12,0c4.5-5.12,1.9-11.76,2.22-17.8c0.1-1.93-2.88-1.92-3,0
			c-0.24,3.84-0.48,7.67-0.72,11.51c-0.08,1.32,1.69,1.95,2.56,1.06c1.56-1.59,2.63-3.55,3.05-5.75c0.25-1.3-1.49-2.76-2.51-1.46
			c-1.32,1.7-1.8,3.5-1.51,5.63c0.18,1.34,2.15,1.37,2.74,0.36c1.45-2.47,1.47-5.44,0.07-7.94c-0.69-1.23-2.29-0.77-2.74,0.36
			c-1.18,2.93-1.71,6.05-1.61,9.21c0.05,1.6,2.71,2.14,2.95,0.4c0.91-6.69-1.12-13.4-5.74-18.36c-0.79-0.85-2.19-0.38-2.51,0.66
			c-1.07,3.49-0.93,7.25,0.46,10.63c0.72,1.75,3.32,1.14,2.89-0.8c-0.76-3.48-1.52-6.95-2.29-10.43c-0.72-3.26-1.5-6.5-2.76-9.6
			c-0.74-1.79-3.18-1.13-2.89,0.8c0.87,5.91,0.86,11.97-0.04,17.88c-0.28,1.87,2.29,2.68,2.89,0.8c2.09-6.55,1.49-13.65-1.53-19.8
			c-0.7-1.42-2.73-0.62-2.8,0.76c-0.59,11.71,4.06,22.75,8.94,33.14C364.56,709,367.15,707.48,366.33,705.74L366.33,705.74z"/>
	</g>
</g>
<g>
	<g>
		<path class="st1" d="M357.38,691.53c-0.62-1.44-0.73-2.95-0.53-4.49c-1,0-2,0-3,0c-0.07,0.61-0.15,1.22-0.22,1.83
			c0.98-0.13,1.96-0.27,2.95-0.4c-1-4.65-1.51-9.37-1.53-14.13c-0.98,0.13-1.96,0.27-2.95,0.4c1.05,2.71,1.23,5.52,0.45,8.32
			c0.96,0,1.93,0,2.89,0c-0.38-2.62-0.76-5.24-1.13-7.87c-0.24-1.67-3.03-1.28-2.95,0.4c0.15,3.21,0.11,6.42-0.13,9.62
			c0.75-0.43,1.5-0.86,2.26-1.3c-0.61-0.28-1.21-0.81-1.11-1.57c-0.96,0-1.93,0-2.89,0c1,2.81,2.27,5.51,3.83,8.05
			c0.18-0.68,0.36-1.37,0.54-2.05c-0.63,0.42-1.25,0.83-1.88,1.25c0.61,0.08,1.21,0.16,1.82,0.23c-4.98-4.77-0.61-12.03,2.31-16.56
			c-0.93-0.25-1.86-0.5-2.8-0.76c-0.17,2.88-0.97,5.64-2.34,8.18c0.68-0.18,1.37-0.36,2.05-0.54c-1.79-1.08-2.87-3.18-2.52-5.27
			c-0.91,0.12-1.83,0.24-2.74,0.36c0.74,1.71,0.4,3.6-0.62,5.1c0.91,0.12,1.83,0.24,2.74,0.36c-1.41-4.1-0.93-8.49,1.37-12.16
			c-0.91-0.12-1.83-0.24-2.74-0.36c0.65,2.15,0.77,4.33,0.28,6.53c0.98,0.13,1.96,0.27,2.95,0.4c-0.11-1.58-0.09-3.18,0.12-4.75
			c0.1-0.76,0.4-1.55,0.45-2.3c0.04-0.15,0.08-0.3,0.12-0.45c-1.39-0.47-1.89-0.41-1.48,0.18c0.06,0.29,0.39,0.72,0.52,0.98
			c1.34,2.66,2.13,5.6,2.36,8.57c0.98-0.13,1.96-0.27,2.95-0.4c-1.08-2.94-1.18-6.08-0.14-9.05c0.17-0.47,0.42-1.46,0.84-1.79
			c0.38-0.29,0.14-0.34,0.64-0.02c0.31,0.19,0.58,0.48,0.83,0.74c0.96,1.02,1.48,2.28,1.71,3.65c0.96-0.27,1.93-0.53,2.89-0.8
			c-0.57-1.78-1.13-3.56-1.7-5.34c-0.96,0.27-1.93,0.53-2.89,0.8c1.21,3.73,2.41,7.45,3.62,11.18c0.48-0.63,0.96-1.27,1.45-1.9
			c-0.21,0.01-0.41-0.04-0.6-0.15c-1.72-0.87-3.24,1.71-1.51,2.59c0.69,0.35,1.33,0.53,2.11,0.56c0.95,0.04,1.74-1,1.45-1.9
			c-1.21-3.73-2.41-7.45-3.62-11.18c-0.59-1.83-3.48-1.05-2.89,0.8c0.57,1.78,1.13,3.56,1.7,5.34c0.6,1.87,3.2,1.08,2.89-0.8
			c-0.54-3.3-5.1-9.8-8.45-5.37c-2.74,3.62-2.72,9.36-1.21,13.44c0.54,1.47,3.09,1.41,2.95-0.4c-0.17-2.2-0.56-4.37-1.26-6.46
			c-0.37-1.1-0.81-2.18-1.32-3.23c-0.39-0.81-0.77-1.79-1.51-2.33c-0.69-0.5-1.55-0.47-2.23,0.02c-0.9,0.66-1.09,1.81-1.31,2.84
			c-0.47,2.28-0.63,4.61-0.48,6.94c0.11,1.6,2.56,2.14,2.95,0.4c0.6-2.71,0.53-5.46-0.28-8.13c-0.38-1.25-2.05-1.46-2.74-0.36
			c-2.69,4.3-3.33,9.67-1.68,14.47c0.43,1.25,2,1.45,2.74,0.36c1.67-2.46,1.78-5.45,0.62-8.13c-0.5-1.15-2.54-0.87-2.74,0.36
			c-0.58,3.45,0.87,6.84,3.9,8.66c0.68,0.41,1.67,0.17,2.05-0.54c1.63-3.02,2.54-6.27,2.75-9.69c0.09-1.57-2.04-1.93-2.8-0.76
			c-2.15,3.34-4.33,6.84-4.82,10.86c-0.41,3.38,0.47,6.94,2.98,9.34c0.46,0.44,1.26,0.6,1.82,0.23c0.63-0.42,1.25-0.83,1.88-1.25
			c0.66-0.44,0.98-1.33,0.54-2.05c-1.42-2.33-2.61-4.77-3.53-7.34c-0.44-1.22-2.68-1.61-2.89,0c-0.28,2.04,0.53,4.06,2.49,4.96
			c1.07,0.49,2.17-0.1,2.26-1.3c0.24-3.21,0.28-6.41,0.13-9.62c-0.98,0.13-1.96,0.27-2.95,0.4c0.38,2.62,0.76,5.24,1.13,7.87
			c0.22,1.53,2.53,1.32,2.89,0c0.91-3.28,0.78-6.74-0.45-9.92c-0.58-1.5-2.96-1.41-2.95,0.4c0.03,5.02,0.58,10.02,1.64,14.92
			c0.39,1.79,2.76,1.15,2.95-0.4c0.07-0.61,0.15-1.22,0.22-1.83c0.23-1.92-2.75-1.88-3,0c-0.28,2.1,0.1,4.07,0.94,6
			C355.56,694.81,358.14,693.29,357.38,691.53L357.38,691.53z"/>
	</g>
</g>
<g>
	<g>
		<path class="st1" d="M363,661.63c-0.46-0.94-1.12-1.62-1.96-2.22c-1.33-0.94-2.65,0.83-2.05,2.05c1,2.05,2.19,3.99,3.58,5.81
			c0.68,0.89,1.4,1.76,2.16,2.59c0.39,0.42,0.78,0.83,1.19,1.22c0.2,0.2,0.41,0.39,0.62,0.59c0.34,0.31,0.38,0.36,0.13,0.15
			c-0.04,0.43-0.65,1.14-0.89,1.51c-0.31,0.49-0.64,0.98-0.98,1.45c-0.68,0.94-1.42,1.87-2.25,2.69c-2.08,2.05-3.35-0.61-3.99-2.46
			c-0.73,0.56-1.47,1.13-2.2,1.69c1.72,0.93,3.13,2.18,4.19,3.83c0.43-0.75,0.86-1.5,1.3-2.26c0.06-0.01,0.12-0.02,0.18-0.03
			c-0.35-1.6-2.39-1.23-2.89,0c-1.22,2.97-2.44,5.95-3.66,8.92c-0.54,1.31-1.28,2.56-0.78,4c0.5,1.45,1.32,2.85,1.98,4.23
			c0.68-0.68,1.37-1.37,2.05-2.05c-7.19-3.84-14.47-11.47-14.05-20.2c0.11-2.26,0.95-4.42,1.8-6.49c0.88-2.13,1.78-4.24,2.75-6.33
			c0.96-2.07,1.98-4.12,3.17-6.06c0.3-0.49,1.21-2.07,1.96-1.93c0.26,0.05,0.47,0.5,0.21,0.68c0.61,0.08,1.21,0.16,1.82,0.23
			c-0.65-0.76-2-2.21-0.96-3.16c-0.79-0.61-1.57-1.21-2.36-1.82c-1.57,2.12-2.64,4.62-3.07,7.22c-0.45,2.7-0.15,5.18,0.45,7.82
			c0.17,0.72,0.05,0.59-0.53,0.96c-0.46,0.29-0.88,0.68-1.18,1.14c-0.56,0.84-0.74,1.88-0.66,2.88c0.1,1.12,0.5,2.21,1.14,3.13
			c0.49,0.7,2.55,2.16,2,3.07c0.68-0.18,1.37-0.36,2.05-0.54c-2.48-1.92-5.17-3.49-8.06-4.71c-0.75-0.32-1.6-0.22-2.05,0.54
			c-0.37,0.63-0.21,1.74,0.54,2.05c2.89,1.22,5.58,2.79,8.06,4.71c0.65,0.5,1.68,0.09,2.05-0.54c0.66-1.1,0.66-2.39,0.1-3.54
			c-0.57-1.17-1.71-1.86-2.37-2.96c-0.37-0.63-0.81-1.83-0.27-2.49c0.3-0.37,0.92-0.52,1.29-0.84c0.44-0.38,0.77-0.89,0.91-1.46
			c0.3-1.24-0.27-2.49-0.5-3.69c-0.24-1.23-0.28-2.5-0.19-3.74c0.2-2.73,1.26-5.3,2.88-7.49c1.06-1.43-1.16-2.91-2.36-1.82
			c-2.47,2.25-0.79,5.36,0.96,7.4c0.4,0.47,1.3,0.59,1.82,0.23c3.21-2.2,0.87-7.47-2.98-6.01c-1.99,0.75-3.11,2.78-4.1,4.53
			c-1.19,2.12-2.23,4.33-3.21,6.56c-1.82,4.13-4.14,8.52-4.13,13.13c0.01,4.44,1.81,8.8,4.37,12.36c2.92,4.07,6.78,7.39,11.19,9.75
			c1.38,0.74,2.69-0.72,2.05-2.05c-0.52-1.09-1.31-2.28-1.64-3.45c-0.27-0.95,0.81-2.65,1.2-3.58c1.07-2.6,2.14-5.2,3.2-7.8
			c-0.96,0-1.93,0-2.89,0c0.3,1.37,1.38,2.1,2.71,2.23c1.13,0.11,1.87-1.36,1.3-2.26c-1.33-2.06-3.1-3.74-5.26-4.91
			c-1.07-0.58-2.66,0.4-2.2,1.69c0.89,2.55,2.44,5.62,5.62,5.51c3.01-0.11,5.25-3.69,6.73-5.92c0.74-1.12,1.93-2.62,1.71-4.05
			c-0.22-1.46-1.79-2.45-2.73-3.45c-2.21-2.36-4-5.04-5.42-7.95c-0.68,0.68-1.37,1.37-2.05,2.05c0.43,0.3,0.66,0.67,0.89,1.14
			C361.25,664.88,363.84,663.36,363,661.63L363,661.63z"/>
	</g>
</g>
<g>
	<g>
		<path class="st1" d="M458.04,614.41c1.48,4.73,3.42,9.33,5.21,13.94c1.83,4.73,3.67,9.45,5.5,14.18c3.7,9.53,7.4,19.06,11.1,28.59
			c0.91-0.39,1.83-0.77,2.74-1.16c-2.21-3.84-4.41-7.67-6.62-11.51c-0.96-1.67-3.56-0.16-2.59,1.51c2.21,3.84,4.41,7.67,6.62,11.51
			c0.82,1.43,3.37,0.47,2.74-1.16c-3.7-9.53-7.4-19.06-11.1-28.59c-1.83-4.73-3.67-9.45-5.5-14.18c-1.79-4.62-3.73-9.21-5.21-13.94
			C460.36,611.78,457.46,612.56,458.04,614.41L458.04,614.41z"/>
	</g>
</g>
<g>
	<g>
		<path class="st1" d="M479.06,670.92c1.29,1.86,1.91,3.91,1.83,6.18c0.85-0.35,1.71-0.71,2.56-1.06c-2.43-1.98-4.3-4.39-5.61-7.24
			c-0.56,0.73-1.13,1.47-1.69,2.2c0.35,0.07,0.53,0.09,0.64,0.45c0.91-0.39,1.83-0.77,2.74-1.16c-0.86-1.96-1.67-3.95-2.46-5.94
			c-0.69-1.77-3.57-1.03-2.89,0.8c0.11,0.3,0.22,0.6,0.33,0.89c0.84-0.49,1.67-0.97,2.51-1.46c-0.96-1.14-1.77-2.38-2.47-3.7
			c-0.78-1.47-3.34-0.46-2.74,1.16c0.51,1.37,1.02,2.73,1.53,4.1c0.84-0.49,1.67-0.97,2.51-1.46c-0.41-0.35-0.72-0.7-0.99-1.17
			c-1.01-1.69-3.37-0.21-2.59,1.51c0.36,0.79,0.71,1.58,1.07,2.38c0.73,1.61,3.09,0.42,2.74-1.16c-0.85-3.84-2.2-7.52-4-11.01
			c-0.77-1.48-3.38-0.44-2.74,1.16c0.75,1.87,1.5,3.75,2.26,5.62c0.7,1.74,3.44,1.11,2.89-0.8c-0.89-3.13-1.79-6.25-2.68-9.38
			c-0.62,0.62-1.23,1.23-1.85,1.85c1.79,0.72,2.65,2.91,3.38,4.54c0.86-0.5,1.73-1.01,2.59-1.51c-0.71-1.22-1.41-2.43-2.12-3.65
			c-0.98-1.69-3.4-0.21-2.59,1.51c0.2,0.43,0.4,0.86,0.61,1.29c0.79-0.61,1.57-1.21,2.36-1.82c-1.88-1.62-2.97-3.68-3.3-6.13
			c-0.84,0.49-1.67,0.97-2.51,1.46c0.69,0.58,1.2,1.37,1.07,2.32c0.84-0.22,1.67-0.44,2.51-0.66c-1.33-1.56-2.38-3.3-3.23-5.17
			c-0.86,0.5-1.73,1.01-2.59,1.51c1.02,2.19,1.7,4.55,1.97,6.95c0.85-0.35,1.71-0.71,2.56-1.06c-1.52-1.67-2.5-3.77-2.74-6.03
			c-0.85,0.35-1.71,0.71-2.56,1.06c0.77,0.65,1.48,1.34,2.16,2.09c0.99,1.1,2.97-0.05,2.51-1.46c-0.9-2.75-1.42-5.56-1.53-8.46
			c-0.85,0.35-1.71,0.71-2.56,1.06c1.6,1.71,2.67,3.72,3.24,5.99c0.91-0.39,1.83-0.77,2.74-1.16c-0.73-1.15-1.46-2.31-2.19-3.46
			c-0.68,0.68-1.37,1.37-2.05,2.05c-0.03-0.09-0.06-0.17-0.09-0.26c0.91-0.39,1.83-0.77,2.74-1.16c-1.2-2.38-1.97-4.91-2.37-7.55
			c-0.62,0.62-1.23,1.23-1.85,1.85c0.13,0.08,0.23,0.19,0.32,0.32c1.14,1.3,3.2-0.37,2.36-1.82c-0.92-1.57-1.84-3.15-2.6-4.81
			c-0.77-1.69-1.12-3.45-1.68-5.22c-0.46-1.46-1.25-2.63-2.29-3.74c-0.94-1.01-2.05-1.91-2.38-3.31c-0.91,0.39-1.83,0.77-2.74,1.16
			c1.98,3.21,2.7,6.71,3.46,10.34c0.81,3.83,2.47,6.92,4.71,10.1c1.1,1.57,3.71,0.07,2.59-1.51c-1.08-1.53-2.17-3.08-2.99-4.77
			c-0.84-1.73-1.22-3.63-1.6-5.5c-0.72-3.58-1.65-7.03-3.58-10.17c-0.9-1.46-3.13-0.51-2.74,1.16c0.71,3.07,3.94,4.46,4.78,7.44
			c0.49,1.75,0.93,3.46,1.68,5.13c0.8,1.81,1.79,3.52,2.79,5.22c0.79-0.61,1.57-1.21,2.36-1.82c-0.46-0.53-1-0.82-1.64-1.09
			c-1.18-0.49-2,0.87-1.85,1.85c0.45,2.89,1.36,5.65,2.68,8.27c0.75,1.49,3.37,0.44,2.74-1.16c-0.27-0.69-0.59-1.21-1.29-1.54
			c-1.26-0.6-2.91,0.69-2.05,2.05c0.73,1.15,1.46,2.31,2.19,3.46c0.9,1.43,3.16,0.52,2.74-1.16c-0.69-2.77-2.06-5.24-4.01-7.32
			c-0.87-0.93-2.61-0.23-2.56,1.06c0.12,3.15,0.66,6.26,1.64,9.26c0.84-0.49,1.67-0.97,2.51-1.46c-0.68-0.75-1.39-1.44-2.16-2.09
			c-0.88-0.74-2.71-0.35-2.56,1.06c0.32,3.09,1.52,5.85,3.62,8.15c0.82,0.9,2.71,0.25,2.56-1.06c-0.34-2.97-1.11-5.76-2.38-8.47
			c-0.82-1.75-3.38-0.23-2.59,1.51c0.95,2.11,2.2,4.01,3.7,5.77c0.68,0.8,2.35,0.44,2.51-0.66c0.28-1.99-0.26-3.91-1.84-5.23
			c-1.22-1.02-2.71-0.02-2.51,1.46c0.39,2.9,1.86,5.55,4.07,7.46c1.31,1.13,3.09-0.26,2.36-1.82c-0.2-0.43-0.4-0.86-0.61-1.29
			c-0.86,0.5-1.73,1.01-2.59,1.51c0.71,1.22,1.41,2.43,2.12,3.65c0.99,1.71,3.36,0.21,2.59-1.51c-1.13-2.53-2.49-4.84-5.17-5.92
			c-1.09-0.44-2.13,0.84-1.85,1.85c0.89,3.13,1.79,6.25,2.68,9.38c0.96-0.27,1.93-0.53,2.89-0.8c-0.75-1.87-1.5-3.75-2.26-5.62
			c-0.91,0.39-1.83,0.77-2.74,1.16c1.69,3.26,2.91,6.7,3.7,10.29c0.91-0.39,1.83-0.77,2.74-1.16c-0.36-0.79-0.71-1.58-1.07-2.38
			c-0.86,0.5-1.73,1.01-2.59,1.51c0.4,0.67,0.87,1.26,1.46,1.77c1.02,0.89,3.08,0.06,2.51-1.46c-0.51-1.37-1.02-2.73-1.53-4.1
			c-0.91,0.39-1.83,0.77-2.74,1.16c0.82,1.55,1.81,2.97,2.94,4.31c0.95,1.12,3.02-0.07,2.51-1.46c-0.11-0.3-0.22-0.6-0.33-0.89
			c-0.96,0.27-1.93,0.53-2.89,0.8c0.88,2.24,1.8,4.45,2.76,6.66c0.68,1.56,3.24,0.45,2.74-1.16c-0.41-1.31-1.36-2.29-2.73-2.55
			c-1.34-0.25-2.25,0.99-1.69,2.2c1.4,3.05,3.48,5.73,6.08,7.85c0.99,0.81,2.51,0.32,2.56-1.06c0.09-2.74-0.68-5.43-2.24-7.69
			C480.55,667.83,477.95,669.33,479.06,670.92L479.06,670.92z"/>
	</g>
</g>
<g>
	<g>
		<path class="st1" d="M557.65,601.69c1.93,0,1.93-3,0-3C555.71,598.69,555.71,601.69,557.65,601.69L557.65,601.69z"/>
	</g>
</g>
<g>
	<g>
		<path class="st1" d="M557.08,598.7c-2.66,0.53-2.1,3.8-1.06,5.49c1.75,2.87,3.58,5.7,5.39,8.53c3.66,5.73,7.4,11.4,11.36,16.92
			c1.78,2.48,3.63,4.98,4.8,7.82c1.16,2.8,1.71,5.81,2.44,8.73c0.71,2.87,1.59,5.72,3.12,8.28c1.42,2.37,3.26,4.46,5.03,6.56
			c2.09,2.48,3.87,4.98,5.05,8.01c1.1,2.82,3.01,6.1,6.54,5.73c1.33-0.14,1.93-1.52,1.06-2.56c-4.39-5.28-8-11.23-10.66-17.56
			c-0.62,0.62-1.23,1.23-1.85,1.85c1.8,0.28,2.27,2.32,2.65,3.83c0.47,1.89,1.03,3.83,2.59,5.12c1.48,1.22,3.61-0.89,2.12-2.12
			c-1.71-1.4-1.65-3.84-2.42-5.77c-0.74-1.85-2.06-3.63-4.15-3.95c-0.97-0.15-2.34,0.66-1.85,1.85c2.87,6.85,6.69,13.17,11.43,18.89
			c0.35-0.85,0.71-1.71,1.06-2.56c-2.82,0.29-3.56-3.48-4.42-5.44c-1-2.28-2.48-4.29-4.05-6.21c-1.58-1.94-3.3-3.79-4.72-5.85
			c-1.53-2.22-2.52-4.62-3.23-7.21c-0.73-2.64-1.23-5.34-2.02-7.97c-0.8-2.63-1.96-5.08-3.46-7.39c-3.23-4.97-6.82-9.69-10.08-14.65
			c-1.85-2.81-3.66-5.65-5.46-8.49c-0.94-1.49-1.88-2.98-2.82-4.47c-0.38-0.61-0.87-1.21-1.16-1.87c-0.09-0.19-0.1-0.42-0.2-0.6
			c-0.3-0.6,0.43-0.18-0.27-0.04C559.77,601.22,558.96,598.33,557.08,598.7L557.08,598.7z"/>
	</g>
</g>
<g>
	<g>
		<path class="st1" d="M591.67,656.28c-0.89-1.45-1.55-2.95-2-4.59c-0.25-0.89-1.39-1.43-2.2-0.9c-0.25,0.17-0.51,0.33-0.76,0.5
			c-0.41,0.26-0.51,0.33-0.29,0.19c0.35,0.15,0.71,0.29,1.06,0.44c-0.05-0.05-0.09-0.1-0.14-0.14c0.15,0.35,0.29,0.71,0.44,1.06
			c-0.02,0.23,0.03,0.06,0.35-0.08c-0.68-0.18-1.37-0.36-2.05-0.54c0.09,0.15,0.12,0.22-0.05,0.33c0.73,0.3,1.47,0.6,2.2,0.9
			c-0.14-0.14-0.16-0.2-0.04-0.18c-0.84-0.22-1.67-0.44-2.51-0.66c0.06,0.29,0.03,0.45-0.18,0.67c0.79,0.1,1.57,0.2,2.36,0.3
			c-0.82-1.89-0.71-3.91,0.05-5.78c-0.91,0.12-1.83,0.24-2.74,0.36c0.6,0.91,0.82,1.84,0.56,2.91c0.91-0.12,1.83-0.24,2.74-0.36
			c-0.66-0.88-0.99-1.76-0.99-2.87c-0.85,0.35-1.71,0.71-2.56,1.06c0.24,0.35,0.51,0.31,0.81-0.12c0.6-0.11,0.72-0.3,0.37-0.59
			c-0.05-0.27-0.44-0.63-0.57-0.88c-0.34-0.65-0.46-1.19,0-1.81c-0.68,0.18-1.37,0.36-2.05,0.54c-0.04-0.04-0.08-0.08-0.12-0.12
			c0.93-0.25,1.86-0.5,2.8-0.76c-0.31-0.59-0.37-1.12-0.21-1.76c-0.91,0.12-1.83,0.24-2.74,0.36c0.5,0.78,0.67,1.48,0.59,2.4
			c0.75-0.43,1.5-0.86,2.26-1.3c-1.04-0.77-1.57-1.98-1.59-3.25c-0.5,0.5-1,1-1.5,1.5c-0.15-0.08-0.29-0.16-0.44-0.24
			c0.84-0.49,1.67-0.97,2.51-1.46c-1.1-1.3-2.02-2.71-2.8-4.21c-0.56,0.73-1.13,1.47-1.69,2.2c-0.17-0.13-0.33-0.27-0.5-0.4
			c0.84-0.49,1.67-0.97,2.51-1.46c-1.56-1.46-2.76-3.2-3.48-5.22c-0.73,0.56-1.47,1.13-2.2,1.69c1.14,0.65,1.98,1.58,2.43,2.83
			c0.84-0.49,1.67-0.97,2.51-1.46c-2.34-2.04-3.07-5.24-4.51-7.88c-0.93-1.7-3.52-0.18-2.59,1.51c1.58,2.9,2.4,6.25,4.98,8.49
			c1.03,0.9,3.05,0.06,2.51-1.46c-0.71-1.98-1.97-3.57-3.81-4.62c-1.07-0.61-2.66,0.42-2.2,1.69c0.9,2.51,2.31,4.72,4.25,6.55
			c1.17,1.09,2.73-0.03,2.51-1.46c-0.14-0.92-0.76-1.42-1.59-1.7c-1.31-0.44-2.26,1.11-1.69,2.2c0.91,1.73,2.01,3.33,3.27,4.82
			c1,1.18,2.89-0.09,2.51-1.46c-0.34-1.22-1.23-1.82-2.45-1.96c-0.8-0.09-1.51,0.76-1.5,1.5c0.04,2.41,1.16,4.41,3.08,5.84
			c1,0.74,2.17-0.29,2.26-1.3c0.12-1.4-0.23-2.74-1-3.92c-0.68-1.04-2.42-0.95-2.74,0.36c-0.36,1.43-0.18,2.77,0.52,4.07
			c0.75,1.4,2.68,0.63,2.8-0.76c0.08-1.05-0.46-1.96-1.37-2.47c-0.76-0.42-1.57-0.13-2.05,0.54c-0.78,1.08-0.9,2.48-0.49,3.73
			c0.37,1.13,1.2,2.62,2.23,3.28c1.03,0.66,2.36,0.29,3.04-0.68c0.82-1.18,0.33-2.65-0.67-3.53c-0.96-0.84-2.55-0.3-2.56,1.06
			c-0.01,1.59,0.44,3.1,1.4,4.38c0.72,0.96,2.41,1.01,2.74-0.36c0.44-1.83,0.18-3.64-0.86-5.22c-0.76-1.15-2.26-0.83-2.74,0.36
			c-1.07,2.67-0.88,5.49,0.26,8.1c0.38,0.87,1.76,0.96,2.36,0.3c0.93-1.04,1.25-2.23,0.95-3.59c-0.25-1.12-1.74-1.43-2.51-0.66
			c-0.82,0.82-1.17,2-0.73,3.1c0.34,0.86,1.31,1.46,2.2,0.9c1.55-0.97,2.05-2.84,1.13-4.43c-0.44-0.76-1.31-0.87-2.05-0.54
			c-1.25,0.55-2.46,2.27-1.52,3.58c1.09,1.52,2.74,0.38,3.87-0.37c-0.73-0.3-1.47-0.6-2.2-0.9c0.52,1.87,1.28,3.65,2.3,5.31
			C590.09,659.44,592.69,657.93,591.67,656.28L591.67,656.28z"/>
	</g>
</g>
<g>
	<g>
		<path class="st1" d="M576.94,626.48c-3.87-4.45-6.31-9.76-9.38-14.74c-1.33-2.16-3.02-3.94-4.84-5.68
			c-1.81-1.73-3.62-3.44-4.72-5.73c-0.84-1.74-3.43-0.22-2.59,1.51c2.27,4.69,7.13,7.34,9.79,11.78c3.06,5.12,5.68,10.43,9.62,14.98
			C576.08,630.06,578.2,627.93,576.94,626.48L576.94,626.48z"/>
	</g>
</g>
<path class="st5" d="M522.45,519.69"/>
<g>
	<g>
		<path class="st1" d="M511.8,521.67c7.15-4.22,13.81-9.24,19.84-14.95c-0.79-0.1-1.57-0.2-2.36-0.3c4.75,8.18,3.26,18.24,6.2,27.01
			c0.61,1.82,3.51,1.04,2.89-0.8c-3.04-9.06-1.58-19.25-6.51-27.73c-0.5-0.85-1.66-0.96-2.36-0.3c-5.85,5.54-12.3,10.38-19.24,14.48
			C508.62,520.06,510.13,522.65,511.8,521.67L511.8,521.67z"/>
	</g>
</g>
<g>
	<g>
		<path class="st1" d="M527.3,523.39c-0.02-0.05-0.05-0.1-0.07-0.14c-0.13-0.26,0.1,0.26,0.04,0.1c-0.03-0.1-0.07-0.2-0.1-0.3
			c-0.03-0.11-0.07-0.23-0.09-0.35c-0.01-0.05-0.02-0.1-0.03-0.16c-0.01-0.05-0.05-0.32-0.01-0.04c0.03,0.26,0.01,0.06,0,0
			c-0.01-0.07-0.01-0.13-0.01-0.2c-0.01-0.11-0.01-0.21-0.01-0.32c0-0.12,0.01-0.24,0.02-0.36c0-0.05,0.01-0.11,0.02-0.16
			c0.01-0.17-0.07,0.41-0.01,0.12c0.04-0.22,0.09-0.44,0.16-0.66c0.02-0.05,0.08-0.32,0.12-0.34c-0.01,0-0.15,0.34-0.06,0.14
			c0.02-0.05,0.04-0.1,0.07-0.14c0.11-0.22,0.23-0.42,0.36-0.62c0.02-0.03,0.06-0.11,0.09-0.13c-0.02,0.01-0.23,0.27-0.09,0.12
			c0.09-0.1,0.18-0.2,0.27-0.29c-0.71-0.71-1.41-1.41-2.12-2.12c-0.74,0.83-1.28,1.74-1.66,2.79c-0.27,0.74,0.3,1.68,1.05,1.85
			c0.85,0.19,1.56-0.26,1.85-1.05c0.01-0.03,0.12-0.24,0.1-0.27c-0.08,0.2-0.1,0.24-0.06,0.14c0.02-0.04,0.04-0.09,0.06-0.13
			c0.08-0.17,0.17-0.34,0.27-0.51c0.1-0.17,0.21-0.32,0.32-0.48c0.15-0.22-0.15,0.18-0.03,0.04c0.07-0.08,0.14-0.17,0.22-0.25
			c0.52-0.59,0.62-1.55,0-2.12c-0.6-0.55-1.53-0.6-2.12,0c-1.92,1.94-2.34,4.95-1.14,7.38c0.35,0.71,1.41,0.96,2.05,0.54
			C527.49,524.97,527.67,524.14,527.3,523.39L527.3,523.39z"/>
	</g>
</g>
<g>
	<g>
		<path class="st6" d="M523.78,526.59c3.2-2.34,5.82-5.33,7.61-8.88c0.64-1.28-0.7-2.88-2.05-2.05c-1.32,0.81-1.97,2.13-2.38,3.58
			c-0.5,1.73-0.93,3.49-1.39,5.23c0.96,0,1.93,0,2.89,0c-0.09-0.21-0.23-0.99-0.36-1.08c-0.02-0.11-0.12-0.09-0.28,0.04
			c-0.3-0.01-0.36,0.04-0.17,0.16c0.04,0.13,0.37,0.36,0.45,0.48c0.51,0.66,0.8,1.46,0.85,2.28c0.98-0.13,1.96-0.27,2.95-0.4
			c-0.1-0.55-0.11-1.13-0.05-1.69c0.04-0.38,0.12-1.19,0.38-1.48c-0.22,0.13-0.44,0.26-0.66,0.39c0-0.01-0.01-0.01-0.01-0.02
			c-0.25-0.07-0.5-0.14-0.76-0.2c0.34,0.15,0.32,1.38,0.34,1.75c0.02,0.41-0.09,0.92-0.01,1.32c-0.09,0.45-0.02,0.44,0.21-0.03
			c-0.15,0.01-0.3,0.01-0.45,0.01c-1.4-0.11-2.59-1.26-3.54-2.19c-1.06-1.04-2.39-2.26-2.49-3.84c-0.02-0.32,0.17-0.66,0.15-0.95
			c0.24-0.26,0.07-0.3-0.51-0.13c0.03,0.06,0.06,0.13,0.08,0.2c-0.06,0.77,0.06,1.36-0.3,2.11c0.91,0.39,1.83,0.77,2.74,1.16
			c0.14-0.97,0.27-1.94,0.41-2.91c0.2-1.46-1.31-2.51-2.51-1.46c-0.52,0.45-1.03,0.91-1.55,1.36c-0.26,0.23-0.51,0.46-0.77,0.68
			c-0.44,0.36-0.29,0.09,0.04,0.2c0.22,0.13,0.44,0.26,0.66,0.39c-0.05-0.05-0.09-0.09-0.14-0.14c0.13,0.22,0.26,0.44,0.39,0.66
			c-0.06-0.19,0.85-1.53,1.01-1.77c0.91-1.46-1.15-3-2.36-1.82c-0.55,0.54-1.1,1.08-1.66,1.62c-0.25,0.25-0.51,0.5-0.76,0.75
			c-0.13,0.12-0.25,0.25-0.38,0.37c-0.39,0.27-0.21,0.38,0.54,0.31c0.13,0.22,0.26,0.44,0.39,0.66c-0.07,0.39-0.04,0.47,0.09,0.22
			c0.09-0.14,0.19-0.27,0.28-0.4c0.15-0.21,0.3-0.41,0.46-0.61c0.38-0.47,0.78-0.91,1.2-1.34c-0.71-0.71-1.41-1.41-2.12-2.12
			c-0.76,0.89-1.59,1.69-2.55,2.36c0.61,0.08,1.21,0.16,1.82,0.23c0.03,0.13,0.06,0.25,0.09,0.38c-0.13,0.24-0.14,0.31,0,0.19
			c0.1,0,0.52-0.28,0.6-0.32c0.49-0.24,0.99-0.47,1.48-0.7c1.04-0.49,2.07-1.01,3.12-1.48c0.52-0.23,0.77-0.37,0.97,0.23
			c0.2,0.58-0.09,1.09-0.48,1.52c-0.56,0.62-1.32,1.05-2.03,1.47c-0.72,0.42-1.66,1.06-2.54,0.94c-0.8-0.11-1.43-0.9-2.12-1.28
			c-0.46-0.25-0.93-0.39-1.44-0.47c-0.23-0.03-0.46-0.08-0.69-0.09c-0.39-0.01-0.19-0.2-0.14,0.04c-0.84,0.49-1.67,0.97-2.51,1.46
			c3.31,2.99,7.04,5.97,11.08,7.91c2.17,1.04,4.28,1.27,6.65,0.89c1.01-0.16,2.26-0.26,3.03-1.02c0.72-0.71,0.99-2.01,0.09-2.71
			c-0.64-0.49-1.5-0.62-2.12,0c-0.52,0.52-0.64,1.62,0,2.12c0.04,0.03,0.08,0.06,0.12,0.09c-0.13-0.22-0.26-0.44-0.39-0.66
			c0.01,0.04,0.02,0.09,0.03,0.13c0-0.27,0-0.53,0-0.8c0.51-0.42,0.52-0.55,0.03-0.36c-0.23,0.05-0.47,0.1-0.7,0.15
			c-0.4,0.08-0.81,0.16-1.21,0.21c-0.84,0.1-1.7,0.11-2.52-0.1c-1.49-0.37-2.81-1.22-4.1-2.03c-2.8-1.74-5.42-3.74-7.86-5.95
			c-1.12-1.01-2.84-0.02-2.51,1.46c0.32,1.42,1.58,1.95,2.88,2.14c1.14,0.17,1.84,1.04,2.86,1.49c2.47,1.1,5.28-0.58,7.23-2.05
			c1.93-1.46,3.19-3.86,1.9-6.18c-0.54-0.98-1.51-1.7-2.64-1.77c-1.36-0.09-2.67,0.76-3.85,1.32c-0.77,0.36-1.53,0.73-2.3,1.09
			c-0.69,0.33-1.43,0.61-1.99,1.14c-1.02,0.96-1.3,2.74-0.12,3.72c0.48,0.4,1.24,0.64,1.82,0.23c1.17-0.82,2.23-1.74,3.16-2.83
			c1.24-1.45-0.76-3.53-2.12-2.12c-1.25,1.29-4.54,4.48-1.98,6.09c1.04,0.66,2.22,0.25,3.07-0.5c1.04-0.92,2-1.95,2.99-2.91
			c-0.79-0.61-1.57-1.21-2.36-1.82c-0.9,1.44-2.65,4.63,0.05,5.33c0.91,0.23,1.78-0.25,2.45-0.81c0.88-0.73,1.72-1.51,2.58-2.26
			c-0.84-0.49-1.67-0.97-2.51-1.46c-0.14,0.97-0.27,1.94-0.41,2.91c-0.1,0.74,0.12,1.47,0.87,1.77c0.64,0.26,1.54,0.07,1.87-0.61
			c0.66-1.38,1.05-3.04,0.56-4.54c-0.46-1.4-1.78-2.55-3.33-2.08c-1.55,0.47-2.24,2.24-2.23,3.73c0.01,1.62,0.73,3.08,1.71,4.32
			c1.74,2.21,4.34,4.73,7.32,4.86c1.7,0.08,3.01-0.79,3.19-2.52c0.16-1.47,0.14-3.35-0.49-4.71c-0.73-1.57-2.84-2.3-3.91-0.58
			c-0.99,1.6-1,3.81-0.69,5.58c0.29,1.66,3.06,1.28,2.95-0.4c-0.14-2.1-1.24-4.95-3.43-5.7c-1.17-0.4-2.41,0.15-3.02,1.2
			c-0.63,1.08-0.39,2.32,0.07,3.41c0.53,1.26,2.48,1.57,2.89,0c0.38-1.44,0.77-2.89,1.15-4.33c0.23-0.88,0.4-2.17,1.24-2.69
			c-0.68-0.68-1.37-1.37-2.05-2.05c-1.55,3.07-3.75,5.77-6.54,7.8c-0.65,0.48-0.98,1.3-0.54,2.05
			C522.1,526.7,523.12,527.07,523.78,526.59L523.78,526.59z"/>
	</g>
</g>
<g>
	<g>
		<path class="st6" d="M529,508.5c-0.23,11.02-0.59,22.95-7.39,32.19c-1.14,1.56,1.46,3.06,2.59,1.51c7.1-9.65,7.56-22.19,7.8-33.71
			C532.04,506.56,529.04,506.56,529,508.5L529,508.5z"/>
	</g>
</g>
<g>
	<g>
		<path class="st1" d="M530.93,508.3c-1.19,6.65-7.74,10.57-12.33,14.84c-2.4,2.23-4.61,4.74-5.84,7.82
			c-1.69,4.24-0.68,8.65,0.77,12.8c0.81,2.33,1.7,4.65,2.14,7.09c0.5,2.83,0.43,5.73,0.39,8.59c-0.04,2.68-0.07,5.35,0.27,8.01
			c0.32,2.55,0.9,5.04,1.6,7.51c1.37,4.87,3.2,9.73,3.64,14.8c0.47,5.41-0.86,10.68-2.68,15.73c-3.86,10.69-9.68,20.7-16.97,29.42
			c-1.23,1.47,0.88,3.6,2.12,2.12c6.56-7.85,11.93-16.6,15.89-26.03c2.04-4.86,3.84-9.88,4.5-15.13c0.66-5.22-0.29-10.31-1.73-15.32
			c-1.43-4.98-3.23-9.94-3.57-15.16c-0.36-5.56,0.47-11.2-0.85-16.68c-1.13-4.67-4.04-9.36-3.36-14.31
			c0.44-3.18,2.44-5.81,4.65-8.03c5.18-5.19,12.85-9.43,14.25-17.27C534.16,507.21,531.27,506.4,530.93,508.3L530.93,508.3z"/>
	</g>
</g>
<g>
	<g>
		<path class="st1" d="M425.33,576.1c1.52,3.59-0.85,7.86-1.85,11.28c-0.54,1.85-0.93,3.82-0.74,5.75c0.22,2.17,1.12,4.1,2.31,5.9
			c1.79,2.72,6.37,8.12,2.51,11.07c-1.51,1.16-3.42,1.63-4.81,2.98c-1.48,1.43-1.98,3.45-1.66,5.44c0.34,2.13,1.49,4.04,2.83,5.7
			c1.34,1.67,3.05,3.28,3.74,5.36c1.18,3.54-2.06,6.05-4.45,8.04c-2.9,2.41-5.71,4.94-6.53,8.81c-0.89,4.24,0.43,8.55,1.65,12.58
			c1.41,4.66,2.77,9.27,1.55,14.13c-1.14,4.54-3.97,8.55-7.95,11.03c-0.74,0.46-0.89,1.3-0.54,2.05c0.97,2.08,2.83,3.58,5.04,4.18
			c1.87,0.51,2.66-2.39,0.8-2.89c-1.52-0.41-2.58-1.38-3.24-2.8c-0.18,0.68-0.36,1.37-0.54,2.05c7.55-4.69,11.19-13.67,9.47-22.31
			c-0.89-4.48-2.88-8.73-3.42-13.28c-0.25-2.07-0.14-4.25,0.83-6.13c0.86-1.67,2.23-2.95,3.65-4.16c2.61-2.23,5.92-4.46,6.74-8.02
			c1.09-4.72-2.54-7.76-5.01-11.2c-1.09-1.53-2.44-3.96-1.35-5.82c0.95-1.62,3.26-2.11,4.72-3.14c3.93-2.78,3.27-7.82,1.05-11.51
			c-1.29-2.15-3.13-4.07-3.98-6.45c-0.8-2.23-0.37-4.51,0.28-6.72c1.32-4.45,3.44-8.82,1.49-13.42c-0.32-0.75-1.41-0.9-2.05-0.54
			C425.09,574.49,425.01,575.36,425.33,576.1L425.33,576.1z"/>
	</g>
</g>
<g>
	<g>
		<path class="st1" d="M339.75,617.04c-0.59,7.3-6.08,13.04-9.78,18.98c-1.77,2.84-4.57,7.07-1.69,10.1
			c1.09,1.15,2.9,1.68,3.08,3.45c0.18,1.71-0.85,3.35-1.96,4.54c-2.1,2.24-7.49,5.63-5.5,9.34c0.76,1.42,2.26,1.93,3.43,2.91
			c1.25,1.05,1.53,2.72,1.5,4.26c-0.07,3.9-2.18,7.5-1.61,11.47c0.31,2.14,1.69,3.57,2.41,5.52c0.76,2.08-0.15,4.38-0.94,6.31
			c-1.69,4.17-3.35,8.42-5.45,12.41c-1.89,3.6-4.29,6.94-7.87,9c0.5,0,1.01,0,1.51,0c-1.79-1.21-3.59-2.42-5.38-3.63
			c-1.6-1.08-3.11,1.52-1.51,2.59c1.79,1.21,3.59,2.42,5.38,3.63c0.44,0.3,1.07,0.25,1.51,0c6.74-3.86,9.74-11.36,12.6-18.18
			c1.59-3.8,4.42-8.46,3.1-12.71c-0.61-1.96-2.19-3.47-2.44-5.56c-0.27-2.2,0.5-4.43,1.03-6.53c0.81-3.22,1.22-7.09-0.96-9.88
			c-0.53-0.68-1.17-1.19-1.88-1.66c-0.51-0.34-1.53-0.74-1.78-1.34c-0.29-0.71,0.81-1.76,1.23-2.23c0.7-0.76,1.48-1.45,2.25-2.16
			c2.6-2.4,5.36-5.91,4.04-9.71c-0.64-1.84-2.1-2.52-3.43-3.75c-1.48-1.37,0.18-3.69,0.95-5.06c4.1-7.22,10.46-13.45,11.16-22.13
			C342.91,615.11,339.91,615.12,339.75,617.04L339.75,617.04z"/>
	</g>
</g>
<g>
	<g>
		<path class="st1" d="M276.26,716.17c-0.04-3.23,1.83-5.89,3.94-8.18c2.39-2.59,5.07-4.91,7.48-7.48
			c5.06-5.41,9.5-11.38,13.25-17.77c0.98-1.67-1.61-3.18-2.59-1.51c-3.92,6.68-8.6,12.88-14,18.44
			c-4.51,4.65-11.17,9.31-11.09,16.51C273.29,718.1,276.29,718.1,276.26,716.17L276.26,716.17z"/>
	</g>
</g>
<g>
	<g>
		<path class="st1" d="M401.89,662.7c-2.43,0.37-4.06,2.59-4.58,4.87c-0.67,2.97,0.58,5.75,0.88,8.66c0.51,4.82-3.31,9.68-8.17,10.2
			c-1.9,0.2-1.92,3.21,0,3c5.15-0.55,9.58-4.36,10.86-9.41c0.73-2.87,0.01-5.54-0.54-8.36c-0.42-2.13-0.46-5.64,2.34-6.07
			C404.59,665.31,403.79,662.41,401.89,662.7L401.89,662.7z"/>
	</g>
</g>
<g>
	<g>
		<path class="st1" d="M587.73,613.32c5.17,5.11,11.78,12.03,9.46,20.04c-0.48,1.66-1.65,3.25-0.95,5.03
			c0.68,1.73,3.03,2.72,4.49,3.66c3.83,2.49,7.66,4.98,11.49,7.47c1.62,1.06,3.13-1.54,1.51-2.59c-3.76-2.45-7.52-4.89-11.28-7.34
			c-0.91-0.59-1.81-1.17-2.72-1.77c-0.41-0.27-0.71-0.36-0.7-0.87c0.01-0.32,0.29-0.8,0.41-1.1c0.71-1.71,1.13-3.45,1.17-5.31
			c0.17-7.96-5.46-14.11-10.76-19.35C588.48,609.84,586.36,611.96,587.73,613.32L587.73,613.32z"/>
	</g>
</g>
<g>
	<g>
		<path class="st1" d="M525.96,687.94c3.54,0.2,6.49,2.42,8.91,4.84c2.45,2.45,4.84,5.25,6.16,8.49c1.18,2.9,1.41,6.44-0.32,9.18
			c-1.59,2.53-5.13,4.26-4.1,7.78c0.54,1.85,3.43,1.06,2.89-0.8c-0.42-1.43,1.6-2.83,2.44-3.73c1.19-1.28,2.05-2.76,2.54-4.44
			c1.03-3.59,0.28-7.38-1.38-10.65c-1.71-3.36-4.35-6.43-7.13-8.95c-2.82-2.56-6.12-4.51-10-4.73
			C524.03,684.83,524.04,687.83,525.96,687.94L525.96,687.94z"/>
	</g>
</g>
<g>
	<g>
		<path class="st1" d="M468.72,695.3c-4.15,3.43-8.54,6.55-13.13,9.37c-0.97,0.6-0.97,1.99,0,2.59c3.79,2.36,7.58,4.71,11.37,7.07
			c0.72,0.45,1.61,0.85,2.19,1.47c0.63,0.67,0.08,1.19-0.43,1.77c-1.3,1.47-2.87,2.63-4.6,3.54c-1.71,0.91-0.19,3.5,1.51,2.59
			c3.1-1.65,9.66-6.36,5.52-10.14c-1.85-1.69-4.35-2.86-6.47-4.18c-2.53-1.57-5.05-3.14-7.58-4.71c0,0.86,0,1.73,0,2.59
			c4.81-2.95,9.38-6.25,13.73-9.84C472.33,696.19,470.2,694.08,468.72,695.3L468.72,695.3z"/>
	</g>
</g>
</svg>
